<?xml version="1.0" encoding="utf-8"?>
<!-- Generator: Adobe Illustrator 23.1.1, SVG Export Plug-In . SVG Version: 6.00 Build 0)  -->
<svg version="1.1" id="Layer_1" xmlns="http://www.w3.org/2000/svg" xmlns:xlink="http://www.w3.org/1999/xlink" x="0px" y="0px"
	 viewBox="0 0 413.3 223.9" style="enable-background:new 0 0 413.3 223.9;" xml:space="preserve">
<style type="text/css">
	.st0{fill:#252222;}
	.st1{fill:none;stroke:#252222;stroke-miterlimit:10;}
	.st2{fill:none;stroke:#252222;stroke-width:1;stroke-miterlimit:10.0003;}
	.st3{fill:#FFC95F;}
	.st4{fill:#FFFFFF;}
</style>
<g>
	<polygon class="st0" points="50.7,151.7 34.1,155.2 39.6,181.1 53.3,178.2 54.5,184.2 40.8,187 47.5,218.8 37.8,220.8 23.2,151.3 
		49.4,145.8 	"/>
	<polygon class="st1" points="50.7,151.7 34.1,155.2 39.6,181.1 53.3,178.2 54.5,184.2 40.8,187 47.5,218.8 37.8,220.8 23.2,151.3 
		49.4,145.8 	"/>
	<path class="st0" d="M96.6,208.5l-9.7,2l-5.6-26.7c-0.7-3.4-2.9-4.7-6.6-3.9l-5.5,1.2l6.7,31.7l-9.7,2l-14.6-69.5l15.2-3.2
		c4.5-1,8.5-0.6,11.9,1.1c3.2,1.7,5,3.9,5.6,6.7l3,14c0.9,4.4-1,8.3-5.8,11.4c5.7,0.9,9,3.7,10,8.1L96.6,208.5z M77.9,167.7
		L74.6,152c-0.7-3.4-2.9-4.7-6.6-3.9l-5.5,1.2l5.5,25.9l5.5-1.2C77.2,173.2,78.7,171.1,77.9,167.7"/>
	<path class="st1" d="M96.6,208.5l-9.7,2l-5.6-26.7c-0.7-3.4-2.9-4.7-6.6-3.9l-5.5,1.2l6.7,31.7l-9.7,2l-14.6-69.5l15.2-3.2
		c4.5-1,8.5-0.6,11.9,1.1c3.2,1.7,5,3.9,5.6,6.7l3,14c0.9,4.4-1,8.3-5.8,11.4c5.7,0.9,9,3.7,10,8.1L96.6,208.5z M77.9,167.7
		L74.6,152c-0.7-3.4-2.9-4.7-6.6-3.9l-5.5,1.2l5.5,25.9l5.5-1.2C77.2,173.2,78.7,171.1,77.9,167.7z"/>
	
		<rect x="93.5" y="136.3" transform="matrix(0.9786 -0.2059 0.2059 0.9786 -33.2632 23.9555)" class="st0" width="9.9" height="71"/>
	
		<rect x="93.5" y="136.3" transform="matrix(0.9786 -0.2059 0.2059 0.9786 -33.2632 23.9555)" class="st2" width="9.9" height="71"/>
	<path class="st0" d="M143.2,187.2c0.6,2.9-0.2,5.7-2.4,8.4c-2.4,2.9-5.9,4.8-10.4,5.7l-15.2,3.2L100.6,135l15.2-3.2
		c4.5-0.9,8.5-0.6,11.9,1.1c3.1,1.6,5,3.8,5.6,6.7L143.2,187.2z M133.6,189.3l-10-47.6c-0.7-3.4-2.9-4.7-6.6-3.9l-5.5,1.2l12.2,57.8
		l5.5-1.2C132.8,194.8,134.3,192.7,133.6,189.3"/>
	<path class="st1" d="M143.2,187.2c0.6,2.9-0.2,5.7-2.4,8.4c-2.4,2.9-5.9,4.8-10.4,5.7l-15.2,3.2L100.6,135l15.2-3.2
		c4.5-0.9,8.5-0.6,11.9,1.1c3.1,1.6,5,3.8,5.6,6.7L143.2,187.2z M133.6,189.3l-10-47.6c-0.7-3.4-2.9-4.7-6.6-3.9l-5.5,1.2l12.2,57.8
		l5.5-1.2C132.8,194.8,134.3,192.7,133.6,189.3z"/>
	<path class="st0" d="M179.9,190.9l-9.6,2l-0.3-1.3c-2,1.7-4.4,2.8-7.2,3.4c-4.2,0.9-7.9,0.4-10.8-1.5c-2.4-1.7-3.9-3.9-4.5-6.7
		l-10.2-48.4c-0.6-2.9,0.2-5.6,2.4-8.3c2.5-3,5.9-5,10.4-5.9c4.5-1,8.5-0.6,11.9,1.1c3.1,1.7,4.9,3.9,5.5,6.7l1.7,8.1l-9.6,2
		l-1.7-8.1c-0.7-3.4-2.9-4.7-6.6-3.9c-1.9,0.4-3.1,1.2-3.8,2.5s-0.9,2.6-0.6,3.7l10.2,48.4c0.3,1.3,0.9,2.3,1.9,3
		c1.3,1,2.8,1.3,4.6,0.9c3.7-0.8,5.2-2.9,4.5-6.2l-4.5-21.2l-6.9,1.5l-1.2-5.9l16.5-3.5L179.9,190.9z"/>
	<path class="st1" d="M179.9,190.9l-9.6,2l-0.3-1.3c-2,1.7-4.4,2.8-7.2,3.4c-4.2,0.9-7.9,0.4-10.8-1.5c-2.4-1.7-3.9-3.9-4.5-6.7
		l-10.2-48.4c-0.6-2.9,0.2-5.6,2.4-8.3c2.5-3,5.9-5,10.4-5.9c4.5-1,8.5-0.6,11.9,1.1c3.1,1.7,4.9,3.9,5.5,6.7l1.7,8.1l-9.6,2
		l-1.7-8.1c-0.7-3.4-2.9-4.7-6.6-3.9c-1.9,0.4-3.1,1.2-3.8,2.5s-0.9,2.6-0.6,3.7l10.2,48.4c0.3,1.3,0.9,2.3,1.9,3
		c1.3,1,2.8,1.3,4.6,0.9c3.7-0.8,5.2-2.9,4.5-6.2l-4.5-21.2l-6.9,1.5l-1.2-5.9l16.5-3.5L179.9,190.9z"/>
	<polygon class="st0" points="210.4,184.5 184.2,190 169.5,120.5 195.7,115 197,120.9 180.4,124.4 185.9,150.3 199.6,147.5 
		200.9,153.4 187.1,156.3 192.6,182.2 209.1,178.7 	"/>
	<polygon class="st1" points="210.4,184.5 184.2,190 169.5,120.5 195.7,115 197,120.9 180.4,124.4 185.9,150.3 199.6,147.5 
		200.9,153.4 187.1,156.3 192.6,182.2 209.1,178.7 	"/>
	<path class="st0" d="M47.1,115.7c0.6,2.9-0.2,5.8-2.4,8.7c-2.4,3-5.9,4.9-10.5,5.9l-15.4,3.4L3.2,62.3l15.4-3.4
		c4.6-1,8.6-0.6,12.1,1.1c3.2,1.7,5.2,4,5.8,6.8l3.2,14.4c1,4.6-0.9,8.5-5.8,11.8c5.8,0.9,9.2,3.7,10.2,8.3L47.1,115.7z M30.1,85.2
		L26.6,69c-0.8-3.5-3-4.8-6.7-4l-5.6,1.2l5.8,26.6l5.6-1.2C29.4,90.8,30.9,88.7,30.1,85.2 M37.3,117.9l-3.5-16.2
		c-0.8-3.5-3-4.8-6.7-4l-5.6,1.2l5.8,26.6l5.6-1.2C36.6,123.6,38,121.4,37.3,117.9"/>
	<path class="st1" d="M47.1,115.7c0.6,2.9-0.2,5.8-2.4,8.7c-2.4,3-5.9,4.9-10.5,5.9l-15.4,3.4L3.2,62.3l15.4-3.4
		c4.6-1,8.6-0.6,12.1,1.1c3.2,1.7,5.2,4,5.8,6.8l3.2,14.4c1,4.6-0.9,8.5-5.8,11.8c5.8,0.9,9.2,3.7,10.2,8.3L47.1,115.7z M30.1,85.2
		L26.6,69c-0.8-3.5-3-4.8-6.7-4l-5.6,1.2l5.8,26.6l5.6-1.2C29.4,90.8,30.9,88.7,30.1,85.2z M37.3,117.9l-3.5-16.2
		c-0.8-3.5-3-4.8-6.7-4l-5.6,1.2l5.8,26.6l5.6-1.2C36.6,123.6,38,121.4,37.3,117.9z"/>
	<polygon class="st0" points="80.4,120.2 53.8,126.1 38.2,54.6 64.8,48.8 66.1,54.9 49.3,58.6 55.2,85.2 69.1,82.2 70.4,88.2 
		56.5,91.3 62.3,117.9 79.1,114.3 	"/>
	<polygon class="st1" points="80.4,120.2 53.8,126.1 38.2,54.6 64.8,48.8 66.1,54.9 49.3,58.6 55.2,85.2 69.1,82.2 70.4,88.2 
		56.5,91.3 62.3,117.9 79.1,114.3 	"/>
	<polygon class="st0" points="110,113.7 83.4,119.6 67.8,48.1 94.4,42.3 95.7,48.4 78.9,52.1 84.8,78.7 98.7,75.7 100,81.8 
		86.1,84.8 91.9,111.4 108.7,107.8 	"/>
	<polygon class="st1" points="110,113.7 83.4,119.6 67.8,48.1 94.4,42.3 95.7,48.4 78.9,52.1 84.8,78.7 98.7,75.7 100,81.8 
		86.1,84.8 91.9,111.4 108.7,107.8 	"/>
	<path class="st0" d="M143.8,106.3l-9.8,2.2l-6-27.4c-0.8-3.5-3-4.8-6.7-4l-5.6,1.2l7.1,32.6L113,113L97.4,41.6l15.4-3.4
		c4.6-1,8.6-0.6,12.1,1.1c3.2,1.7,5.2,4,5.8,6.8l3.2,14.4c1,4.6-0.9,8.5-5.8,11.8c5.8,0.9,9.2,3.7,10.2,8.3L143.8,106.3z
		 M124.4,64.5l-3.5-16.2c-0.8-3.5-3-4.8-6.7-4l-5.6,1.2l5.8,26.6l5.6-1.2C123.6,70.2,125.1,68,124.4,64.5"/>
	<path class="st1" d="M143.8,106.3l-9.8,2.2l-6-27.4c-0.8-3.5-3-4.8-6.7-4l-5.6,1.2l7.1,32.6L113,113L97.4,41.6l15.4-3.4
		c4.6-1,8.6-0.6,12.1,1.1c3.2,1.7,5.2,4,5.8,6.8l3.2,14.4c1,4.6-0.9,8.5-5.8,11.8c5.8,0.9,9.2,3.7,10.2,8.3L143.8,106.3z
		 M124.4,64.5l-3.5-16.2c-0.8-3.5-3-4.8-6.7-4l-5.6,1.2l5.8,26.6l5.6-1.2C123.6,70.2,125.1,68,124.4,64.5z"/>
	<path d="M279.5,162.6c1.4,6.9,8.1,11.3,15,9.8l79.2-16.3c6.9-1.4,11.4-8.1,10-15L361.1,29.4L256.9,50.8"/>
	<path d="M408,74.4c-3.7-9.9-10.9-17.7-19.9-22.3c-7.7-4-16.8-5.5-25.9-3.9c-0.3,0.1-0.7,0.1-1,0.2c-0.4,0.1-0.8,0.2-1.2,0.3
		l-25.1,5.2l2,9.7l12.4,61.1l2,9.8l24.9-5.1c0.5-0.1,1-0.2,1.5-0.3c0.6-0.1,1.2-0.3,1.7-0.4c8.7-2.2,16-6.9,21.4-13.3
		c6.6-7.8,10.3-18,9.7-28.7c-0.1-2-0.4-4.1-0.8-6.1C409.4,78.3,408.8,76.3,408,74.4 M390.9,112.5l-5.6,1l-3.5-17.1l-10,2.2
		l-3.4-18.7l9.6-2.1l-3.5-17.1l5.6-1l20.7,23.2L390.9,112.5z"/>
	<path class="st3" d="M273.9,60.2L273.9,60.2l-63.4,13.1v0.1c-3.3,1.1-5.4,4.5-4.7,8c0.7,3.5,3.9,5.8,7.4,5.5V87l0.9-0.2l0,0l0,0
		l58.7-12.1c3.8-0.7,7.4,1.7,8.2,5.4c0.8,3.7-1.7,7.4-5.4,8.2l-23.9,4.9c-3.8,0.8-6.3,4.5-5.5,8.2c0.8,3.8,4.5,6.2,8.3,5.4l0,0
		l23.8-4.9l0,0c3.8-0.8,7.5,1.6,8.3,5.4c0.8,3.8-1.7,7.4-5.4,8.2l-53.3,11l0,0c-3.8,0.8-6.3,4.5-5.5,8.3s4.5,6.2,8.3,5.4l53.3-11
		l0,0c3.8-0.8,7.5,1.6,8.3,5.4c0.8,3.8-1.7,7.5-5.5,8.2l-40.3,8.3c-3.8,0.8-6.3,4.5-5.5,8.2c0.8,3.8,4.5,6.2,8.3,5.4l0,0l40.3-8.3
		l0,0l82.8-17L352.8,44L273.9,60.2z"/>
	<path class="st3" d="M230.1,154.6c-3.8,0.8-6.3,4.5-5.5,8.3s4.5,6.2,8.3,5.4s6.3-4.5,5.5-8.3S233.9,153.8,230.1,154.6"/>
	<path class="st3" d="M243.7,102c-0.8-3.8-4.5-6.2-8.3-5.4s-6.3,4.5-5.5,8.3s4.5,6.2,8.3,5.4C242,109.4,244.5,105.7,243.7,102"/>
	<path class="st4" d="M193.3,77.6c-3.8,0.8-6.3,4.5-5.5,8.3s4.5,6.2,8.3,5.4s6.3-4.5,5.5-8.3C200.8,79.3,197.1,76.9,193.3,77.6"/>
	<path class="st4" d="M272.8,74.7l-58.7,12.1l0,0l0,0l-0.9,0.2v-0.1c-3.5,0.3-6.7-2-7.4-5.5c-0.7-3.5,1.4-6.9,4.7-8v-0.1l63.4-13.1
		l0,0L352.8,44l2.7,13.3L272.8,74.7z"/>
	<path class="st4" d="M351.1,43.4c1.6,4-0.4,8.6-4.5,10.2s-8.7-0.4-10.3-4.4c-1.6-4,0.4-8.6,4.5-10.2
		C344.9,37.4,349.5,39.4,351.1,43.4"/>
	<path class="st4" d="M326.1,63.7c2,5-0.5,10.6-5.5,12.5c-5,2-10.6-0.4-12.6-5.4c-2-4.9,0.5-10.6,5.5-12.5
		C318.5,56.4,324.1,58.8,326.1,63.7"/>
	<path class="st4" d="M316.2,117.3c0.8,2.1-0.2,4.5-2.3,5.3c-2.1,0.8-4.5-0.2-5.3-2.3s0.2-4.5,2.3-5.3S315.4,115.2,316.2,117.3"/>
	<path class="st4" d="M359.3,121.1c2,5-0.5,10.6-5.5,12.6s-10.7-0.4-12.7-5.4s0.5-10.6,5.5-12.6
		C351.7,113.7,357.4,116.1,359.3,121.1"/>
	<path class="st4" d="M346.4,83.7c1,2.5-0.3,5.3-2.8,6.3s-5.3-0.2-6.3-2.7s0.3-5.3,2.7-6.3C342.6,80,345.4,81.2,346.4,83.7"/>
	<path class="st4" d="M331.9,16.4c1.6,4-0.4,8.6-4.5,10.2s-8.7-0.4-10.3-4.4c-1.6-4,0.4-8.6,4.5-10.2
		C325.7,10.4,330.3,12.4,331.9,16.4"/>
	<path class="st4" d="M302.7,11.6c3.2,8.1-0.8,17.2-9,20.4c-8.1,3.2-17.3-0.7-20.5-8.8s0.8-17.2,9-20.4
		C290.4-0.4,299.5,3.5,302.7,11.6"/>
</g>
</svg>
